<?xml version="1.0" standalone="no"?>
<!DOCTYPE svg PUBLIC "-//W3C//DTD SVG 20010904//EN"
 "http://www.w3.org/TR/2001/REC-SVG-20010904/DTD/svg10.dtd">
<svg version="1.0" xmlns="http://www.w3.org/2000/svg"
 width="1920.000000pt" height="990.000000pt" viewBox="0 0 1920.000000 990.000000"
 preserveAspectRatio="xMidYMid meet">
<metadata>
Created by potrace 1.16, written by Peter Selinger 2001-2019
</metadata>
<g transform="translate(0.000000,990.000000) scale(0.100000,-0.100000)"
fill="#000000" stroke="none">
<path d="M3451 7154 c-146 -39 -263 -148 -312 -292 -18 -53 -19 -115 -19
-1912 0 -1797 1 -1859 19 -1912 50 -146 167 -254 316 -293 53 -13 710 -15
6145 -15 5435 0 6092 2 6145 15 149 39 266 147 316 293 18 53 19 115 19 1912
0 1797 -1 1859 -19 1912 -50 146 -167 254 -316 293 -53 13 -709 15 -6150 14
-5289 0 -6097 -2 -6144 -15z m674 -515 c17 -7 167 -94 335 -193 168 -98 319
-187 337 -197 17 -10 130 -76 250 -147 373 -221 882 -520 1336 -786 175 -102
334 -198 353 -213 87 -66 114 -182 60 -263 -33 -50 -74 -80 -246 -180 -74 -43
-211 -124 -305 -179 -93 -56 -174 -101 -180 -101 -10 0 -55 45 -364 368 -96
100 -180 182 -186 182 -15 0 13 28 -890 -910 -389 -404 -712 -735 -718 -735
-6 0 -20 16 -31 35 -21 35 -21 39 -21 1620 l0 1585 22 41 c45 84 151 115 248
73z m5365 -993 l0 -394 -22 -5 c-12 -3 -25 -4 -30 -1 -4 3 -8 183 -8 400 l0
394 30 0 30 0 0 -394z m800 244 l0 -151 38 30 c42 34 115 54 164 44 126 -24
180 -110 181 -289 1 -95 -1 -105 -31 -167 -35 -71 -72 -102 -140 -118 -55 -13
-136 7 -178 43 -31 27 -34 28 -34 10 0 -26 -26 -53 -45 -46 -13 5 -15 63 -15
400 l0 394 30 0 30 0 0 -150z m590 -244 c0 -217 -4 -397 -8 -400 -5 -3 -18 -2
-30 1 l-22 5 0 394 0 394 30 0 30 0 0 -394z m2810 233 l0 -161 28 29 c62 67
169 87 248 47 71 -38 79 -67 82 -320 3 -207 2 -222 -15 -226 -41 -11 -43 -4
-43 190 0 103 -5 205 -10 226 -13 57 -48 88 -107 93 -67 7 -123 -22 -158 -80
-24 -43 -25 -48 -25 -235 0 -105 -4 -193 -8 -196 -5 -3 -18 -2 -30 1 l-22 5 0
394 0 394 30 0 30 0 0 -161z m-5789 -252 c77 -203 137 -371 135 -376 -3 -4
-17 -7 -31 -6 -25 0 -30 8 -67 108 l-41 107 -170 -2 -170 -3 -36 -102 c-34
-98 -36 -101 -68 -105 -18 -2 -33 0 -33 5 0 7 151 412 269 720 9 24 16 28 42
25 l31 -3 139 -368z m5479 253 l0 -70 60 0 60 0 0 -30 0 -30 -61 0 -60 0 3
-209 c4 -242 6 -251 85 -251 39 0 43 -2 43 -24 0 -20 -6 -24 -40 -30 -26 -4
-53 -1 -79 10 -64 25 -71 56 -71 299 l0 205 -50 0 c-49 0 -50 1 -50 30 0 29 1
30 50 30 l50 0 0 70 0 70 30 0 30 0 0 -70z m-4445 -93 c27 -15 47 -37 63 -67
20 -41 22 -57 22 -225 0 -99 4 -194 9 -212 7 -26 6 -32 -8 -36 -31 -8 -61 11
-61 38 0 29 -12 32 -31 8 -25 -29 -101 -56 -160 -56 -69 0 -125 26 -157 74
-20 28 -23 44 -20 92 8 113 77 158 252 167 l111 5 3 37 c7 86 -52 148 -143
148 -67 0 -115 -26 -138 -72 -15 -31 -24 -38 -48 -38 -22 0 -29 5 -29 19 0 24
38 79 72 104 66 49 186 55 263 14z m975 23 c29 -6 69 -22 88 -36 55 -43 62
-71 62 -271 0 -98 4 -195 9 -216 10 -42 3 -50 -34 -41 -18 4 -28 15 -32 35 -6
33 -15 36 -34 12 -25 -29 -101 -56 -160 -56 -111 0 -184 69 -176 169 4 63 27
95 92 130 44 25 63 28 164 32 l113 5 -4 59 c-4 49 -9 64 -35 90 -33 33 -92 46
-157 34 -40 -8 -96 -58 -96 -87 0 -15 -7 -19 -35 -19 -39 0 -41 6 -21 54 18
43 75 86 134 102 59 16 59 16 122 4z m1452 -21 c20 -10 48 -34 62 -52 27 -35
56 -131 56 -184 l0 -33 -201 0 -202 0 6 -52 c12 -94 80 -167 165 -176 59 -5
111 10 153 45 28 24 32 25 47 10 15 -15 14 -19 -9 -43 -63 -70 -192 -88 -285
-41 -93 47 -136 130 -136 265 0 73 4 91 31 147 63 127 193 175 313 114z m819
0 c87 -43 139 -143 139 -264 0 -174 -99 -288 -250 -288 -77 0 -131 24 -180 79
-53 61 -64 97 -64 209 0 112 11 148 64 209 73 82 192 105 291 55z m608 2 c20
-10 43 -34 55 -57 19 -36 21 -56 21 -264 l0 -225 -25 0 -25 0 -5 217 c-5 200
-7 219 -26 245 -27 37 -60 53 -108 53 -53 0 -113 -36 -142 -86 -23 -39 -24
-48 -24 -232 l0 -192 -30 0 -30 0 0 281 0 280 28 -3 c24 -3 28 -8 32 -48 5
-42 6 -43 17 -23 15 26 74 63 117 74 41 10 103 1 145 -20z m1736 -5 c52 -28
93 -95 106 -176 5 -35 8 -69 5 -77 -4 -10 -46 -13 -201 -13 l-195 0 0 -37 c1
-73 58 -158 123 -182 63 -24 155 -5 205 41 21 20 24 21 39 5 16 -15 15 -18 -8
-43 -75 -81 -223 -92 -318 -24 -109 79 -141 268 -69 409 59 114 200 158 313
97z m-6408 12 c5 -7 45 -111 88 -230 43 -120 81 -218 84 -218 3 0 35 80 70
178 110 306 99 282 132 282 16 0 29 -4 29 -8 0 -21 -203 -548 -213 -554 -15
-10 -19 -10 -35 1 -13 8 -212 523 -212 549 0 6 11 12 24 12 13 0 28 -6 33 -12z
m1133 -267 c0 -278 0 -279 -22 -284 -12 -3 -25 -4 -30 -1 -10 6 -11 548 -1
557 3 4 17 7 30 7 l23 0 0 -279z m1180 -1431 l0 -440 -85 0 -85 0 0 440 0 440
85 0 85 0 0 -440z m1990 0 l0 -440 -80 0 -80 0 0 440 0 440 80 0 80 0 0 -440z
m-4479 383 c75 -24 152 -101 173 -173 25 -82 27 -80 -67 -80 l-83 0 -14 42
c-21 60 -66 88 -140 88 -70 0 -114 -26 -150 -90 -23 -42 -25 -54 -25 -190 0
-132 2 -149 23 -192 34 -69 72 -92 157 -96 49 -3 83 1 108 12 l37 15 0 75 0
76 -80 0 -81 0 3 63 3 62 163 3 162 2 0 -173 0 -173 -28 -21 c-85 -63 -180
-88 -308 -81 -108 6 -174 31 -232 91 -84 87 -119 207 -109 376 7 113 25 180
67 243 62 94 152 137 286 138 51 0 102 -7 135 -17z m4007 -8 c69 -21 131 -70
161 -130 35 -68 37 -189 4 -252 -51 -96 -137 -134 -318 -143 -97 -4 -120 -8
-121 -20 -1 -8 -2 -72 -3 -142 l-1 -128 -85 0 -85 0 0 415 0 415 198 0 c149 0
211 -4 250 -15z m-3278 -221 c100 -53 150 -151 150 -290 0 -189 -113 -314
-285 -314 -137 0 -208 42 -264 153 -32 63 -35 76 -34 160 0 116 24 184 87 246
88 86 235 105 346 45z m620 20 c39 -12 66 -29 106 -69 69 -69 88 -128 82 -264
-3 -83 -8 -103 -33 -149 -52 -96 -135 -142 -254 -142 -88 0 -151 22 -202 72
-68 66 -84 114 -84 248 0 106 2 119 27 166 67 128 209 182 358 138z m639 -17
l39 -26 6 24 c6 24 10 25 81 25 l75 0 0 -318 c0 -370 -4 -397 -74 -467 -101
-101 -296 -108 -426 -15 -17 12 -30 24 -30 28 0 4 16 29 36 55 l35 48 32 -25
c58 -43 142 -54 200 -24 27 14 57 69 57 106 l0 33 -43 -26 c-56 -32 -148 -35
-206 -6 -53 28 -105 90 -127 152 -26 74 -26 224 0 298 22 64 93 141 146 158
57 20 154 9 199 -20z m1000 17 c68 -20 132 -82 155 -150 9 -27 17 -85 18 -129
l3 -80 -198 -5 -197 -5 22 -44 c45 -87 153 -107 241 -44 l43 30 38 -44 39 -44
-29 -31 c-57 -59 -98 -73 -214 -73 -99 0 -108 2 -160 31 -134 76 -184 255
-120 427 51 137 206 207 359 161z m1979 1 c28 -9 65 -27 82 -41 60 -51 64 -68
71 -309 4 -121 10 -230 14 -242 7 -23 6 -23 -78 -23 -82 0 -85 1 -91 25 l-7
26 -36 -28 c-49 -38 -160 -45 -219 -15 -88 45 -125 119 -104 209 22 102 99
148 263 160 l87 6 0 36 c-1 45 -18 69 -59 81 -44 12 -83 -1 -106 -38 -20 -31
-21 -31 -99 -32 l-79 0 6 36 c20 121 197 196 355 149z m442 -182 c30 -101 57
-183 60 -183 3 0 29 83 59 185 l54 185 89 0 c88 0 89 0 82 -22 -52 -169 -259
-740 -278 -768 -35 -53 -99 -82 -173 -78 l-58 3 -3 61 -3 62 46 6 c52 8 81 34
96 86 9 32 1 62 -96 334 -58 165 -105 303 -105 308 0 5 39 7 88 6 l87 -3 55
-182z"/>
<path d="M10370 5742 c-19 -10 -45 -34 -57 -52 -21 -30 -23 -44 -23 -171 l0
-138 30 -35 c37 -42 87 -60 146 -53 57 6 89 28 116 80 20 36 23 57 23 152 0
121 -16 170 -68 209 -38 28 -122 33 -167 8z"/>
<path d="M7653 5712 c-40 -108 -71 -198 -69 -199 2 -2 69 -2 148 -1 l146 3
-70 190 c-38 105 -73 193 -76 197 -4 3 -39 -82 -79 -190z"/>
<path d="M8760 5513 c-103 -37 -135 -97 -91 -169 48 -80 206 -65 267 25 18 28
24 49 24 93 l0 58 -92 -1 c-51 0 -100 -3 -108 -6z"/>
<path d="M9787 5505 c-79 -27 -110 -84 -84 -147 36 -86 175 -90 258 -7 37 37
39 42 39 104 l0 65 -87 0 c-49 -1 -105 -7 -126 -15z"/>
<path d="M11180 5742 c-40 -22 -88 -93 -92 -137 l-3 -30 163 -3 162 -2 0 32
c0 42 -33 108 -67 132 -39 28 -119 32 -163 8z"/>
<path d="M11990 5741 c-145 -76 -141 -366 5 -435 48 -23 134 -18 173 11 95 70
120 255 48 364 -48 73 -151 100 -226 60z"/>
<path d="M14360 5753 c-39 -15 -74 -51 -96 -97 -42 -89 -47 -86 141 -86 l165
0 0 24 c0 60 -39 124 -92 152 -27 14 -89 18 -118 7z"/>
<path d="M11674 4336 c-3 -8 -4 -65 -2 -128 l3 -113 86 -3 c100 -3 154 11 182
50 41 55 17 162 -43 193 -40 21 -218 21 -226 1z"/>
<path d="M8493 4148 c-63 -16 -99 -97 -90 -204 6 -79 30 -128 72 -148 44 -21
73 -20 113 4 44 27 63 77 64 164 1 141 -59 210 -159 184z"/>
<path d="M9117 4130 c-35 -28 -51 -81 -51 -170 1 -110 37 -167 111 -176 47 -6
80 11 110 54 48 72 38 228 -17 284 -24 23 -37 28 -78 28 -34 0 -57 -6 -75 -20z"/>
<path d="M9791 4134 c-59 -42 -81 -193 -42 -281 34 -74 130 -96 187 -42 23 22
24 28 24 160 0 137 0 138 -26 158 -33 26 -109 28 -143 5z"/>
<path d="M10804 4149 c-39 -11 -72 -46 -80 -87 l-6 -32 112 0 113 0 -6 37
c-11 63 -69 99 -133 82z"/>
<path d="M12763 3929 c-59 -17 -82 -83 -45 -130 26 -31 97 -31 141 0 29 21 31
27 31 82 l0 59 -47 -1 c-27 0 -62 -5 -80 -10z"/>
</g>
</svg>
